<?xml version="1.0" encoding="utf-8"?>
<!-- Generator: Adobe Illustrator 26.5.3, SVG Export Plug-In . SVG Version: 6.00 Build 0)  -->
<svg version="1.1" id="v-2" xmlns="http://www.w3.org/2000/svg" xmlns:xlink="http://www.w3.org/1999/xlink" x="0px" y="0px"
	 viewBox="0 0 45.6 19.7" style="enable-background:new 0 0 45.6 19.7;" xml:space="preserve">
<style type="text/css">
	.st0{fill:#151718;}
</style>
<g>
	<polygon class="st0" points="36.1,2.3 37.1,2.3 37.1,7 39.2,7 39.2,0.1 39.2,0.1 33.6,0.1 32.7,2.4 35.1,2.4 31.3,6.8 32.5,3.1 
		30.2,3.1 31.2,0.1 29.2,0.1 29.2,7 36.1,7 	"/>
	<path class="st0" d="M25.1,4c0.4,0,0.8,0.2,1.4,0.7V3.2c0,0-0.6-0.1-1.4,0.3V2.3h3.1V0.1H23V7h2.2L25.1,4L25.1,4z"/>
	<path class="st0" d="M25.8,8.4H23v11.2h2.6c3,0,4.1-2.1,4.1-5.9C29.7,10.2,28.6,8.4,25.8,8.4z M25.6,18.2h-0.8V9.9h0.8
		c1.7,0,2.3,1.2,2.3,3.9C27.9,16.8,27.3,18.2,25.6,18.2z"/>
	<polygon class="st0" points="33,14.5 36.7,14.5 36.7,13 33,13 33,9.9 36.8,9.9 36.8,8.4 31.3,8.4 31.3,19.6 36.9,19.6 37.1,18.1 
		33,18.1 	"/>
	<path class="st0" d="M43.6,8.4l-1.1,5c-0.3,1.5-0.8,3.3-0.9,4.4l0,0c-0.1-1.1-0.5-2.9-0.8-4.4l-1.1-5h-1.9l2.8,11.2h2l2.8-11.2
		L43.6,8.4L43.6,8.4z"/>
	<path class="st0" d="M42.3,4.8V4l0,0c0.4,0,0.8,0.2,1.4,0.7V3.2c0,0-0.6-0.1-1.4,0.3V2.3h3.1V0.1h-5.2V7h5.2V4.8H42.3z"/>
</g>
<g>
	<path class="st0" d="M12.1,10.1C11.7,9.3,10.7,9,10,9.5C9.7,9.7,9.4,10,9.4,10.4c0.5-0.4,1-1,1.7-0.8c0.4,0.2,0.7,0.5,0.8,0.8
		c-0.1-0.1-0.3-0.2-0.4-0.2c-0.2,0-0.3,0-0.4,0c0.1,0.1,0.1,0.3,0.1,0.5c0,0.3-0.3,0.4-0.5,0.4s-0.3-0.1-0.3-0.2
		c0,0.2-0.1,0.3-0.1,0.5c-0.1,0.7,0.1,1.3,0.5,1.5c-0.2,0.1-0.4,0.1-0.6,0.2c-0.3-0.1-0.6-0.2-0.8-0.5c0.1,0.3,0.3,0.6,0.5,0.7
		c-0.2,0.1-0.3,0.2-0.4,0.3c0.8-0.5,1.7-0.5,2.6-0.4c-0.2-0.1-0.4-0.2-0.5-0.2C12.4,12.3,12.6,11,12.1,10.1z"/>
	<path class="st0" d="M11.9,8.1c-0.8-0.5-2.1-0.5-2.6-0.3C9.2,7.6,9.2,7.4,9.2,7.4C8.3,8.2,8.8,9.2,8.8,9.2s1.1-0.7,2.5-0.3
		c1.3,0.3,1.6,1.8,1.6,1.8C13.2,9.4,12.6,8.4,11.9,8.1z"/>
	<path class="st0" d="M18.6,13c0.3-0.6,0-1.3-0.8-1.1c-0.6,0.2-0.9,0.7-1.2,1.2c0,0-0.2,0.4-0.2,0.6s0.4-0.2,0.8,0.2
		c0.4,0.3-0.4,0.8-0.4,0.8c0.1,0.1,1-0.3,0.7-0.9c-0.1-0.1-0.2-0.2-0.2-0.2c0.4-0.6,0.1-1.1,0-1.2C17.9,11.8,18.6,11.9,18.6,13z"/>
	<path class="st0" d="M18.5,10.6c1.1-4.1-1.6-8.8-6.9-9.2C9.6,0,6,0.3,4.5,1.2c0,0,0.2,0.1,0.4,0.4C4.4,1.6,2.8,2,2.2,2.7
		c0,0,0.3,0.2,0.6,0.4C2.3,3.3,1.5,3.6,0.9,4.4c0,0,0.2-0.1,0.5-0.1C1,4.6,0.7,4.8,0.6,5.2c0,0,0.5,0.9,1.1,0.9C1.4,6.2,0.8,6,0.8,6
		S1,7.4,1.9,8.7C1.8,9.8,1.7,10.9,1.8,12c-1.9,6.1,5.5,8.7,10.6,6.6C11.1,18.8,9.9,19,8.6,19c-2.5,0-5.3-1-6.3-3.3
		c-0.5-1.1-0.5-2.4-0.1-3.6c0-0.9,0-1.8,0.1-2.7c0.1-0.7,0.2-1.4,0.5-2c0.6-0.9,1.9-2,5-2c4.2,0,6.7,2.4,6.7,2.4s0.1,1.3,0.1,1.7
		c0,0.4,0.6,1.2,0.6,1.2c-0.4,0.8-0.4,1.5-0.4,1.7c0.1,0.3,0.5,0.7,0.7,0.8c0.1-0.3,0.2-0.6,0.3-0.8c0.6-0.7,1.3-1.5,2.2-1.4
		c1.9,0.2,1.4,2.3,0.6,3.4c-0.5,0.8-1.5,1.6-2.3,0.8c-0.3-0.2-0.4-0.5-0.5-0.9c-0.1-0.2-0.1-0.4-0.1-0.5c0,0.1,0,0.2,0,0.2
		c0,0.3-0.1,0.7-0.2,1c-0.3,1-0.9,1.8-1.7,2.6c-0.2,0.2-0.4,0.3-0.5,0.5c1.2-0.5,2.3-1.7,2.5-3.1c0.2,0.8,1.1,1.1,1.9,0.8
		c1.1-0.5,1.7-1.5,2-2.6C20.1,11.8,19.4,10.9,18.5,10.6z"/>
	<path class="st0" d="M6,8.9c0,0,0.6-0.8,0.1-1.6c0,0-0.1,0.2-0.2,0.3C5.6,7.4,5.1,7,4.3,7.1C3.7,7.2,3,7.8,2.8,8.7
		c0,0,0.7-0.8,1.7-0.7C5.4,8.1,6,8.9,6,8.9z"/>
	<path class="st0" d="M6.2,14.5c0.6,0,1.2-0.3,1.2-0.5S5.8,14,5,13.7C5,13.7,5.4,14.5,6.2,14.5z"/>
	<path class="st0" d="M3.5,12.3c0.8,0.2,1.4-0.2,1.7-0.8c0,0.5,0,1.1,0,1.1c0.1,0,0.2-1.1,0.5-1.5C6.1,10.6,7,10.4,7,10.3
		c0-0.1-1.1,0-1.5,0.5c0.2-0.6,0.1-1.2-0.1-1.6C4.7,8,3.3,8.3,2.9,9.6c0.3-0.5,0.9-0.9,1.5-0.7C4.8,9,5,9.3,5.2,9.6
		C5.1,9.5,4.9,9.4,4.8,9.4c-0.1,0-0.2,0-0.3,0c0.1,0.1,0.1,0.3,0.1,0.5c-0.1,0.3-0.3,0.4-0.5,0.4c-0.2,0-0.3-0.1-0.3-0.2
		c0,0.1-0.1,0.3-0.1,0.4c-0.2,0.7,0.1,1.4,0.6,1.5c-0.5,0.2-1.1,0-1.5-0.5C2.9,11.9,3.1,12.2,3.5,12.3z"/>
	<path class="st0" d="M10.4,15.3c0,0,0.2-0.5,0.1-0.6c-0.2-0.1-0.7,0-0.7,0c0,0.1,0.3,0.1,0.4,0.2c-1.2,1.2-3.3,1-3.3,1.1
		c0,0.1,1.2,0.1,2-0.1c0.8-0.2,1.1-0.6,1.3-0.9C10.2,15.2,10.1,15.4,10.4,15.3z"/>
</g>
</svg>
