<?xml version="1.0" encoding="utf-8"?>
<!-- Generator: Adobe Illustrator 26.5.3, SVG Export Plug-In . SVG Version: 6.00 Build 0)  -->
<svg version="1.1" id="avatar" xmlns="http://www.w3.org/2000/svg" xmlns:xlink="http://www.w3.org/1999/xlink" x="0px" y="0px"
	 viewBox="0 0 45 44.2" style="enable-background:new 0 0 45 44.2;" xml:space="preserve">
<style type="text/css">
	.st0{fill:#151718;}
</style>
<g>
	<path class="st0" d="M22.4,34.6c0.1,0,0.6-1.1,0.3-1.4c-0.3-0.3-1.5-0.1-1.5-0.1c0,0.2,0.6,0.2,1,0.4c-2.5,2.8-7.3,2.3-7.3,2.6
		c0,0.3,2.9,0.4,4.6-0.2c1.9-0.6,2.6-1.3,3-2.1h0C22.5,34.2,22.3,34.7,22.4,34.6z"/>
	<path class="st0" d="M5.9,26.1c0,0-0.1,0-0.1,0.1c0.2,0.7,0.8,1.4,1.7,1.7c1.7,0.4,3.1-0.5,3.8-1.9c-0.2,1.2-0.2,2.5-0.1,2.5
		c0.1,0,0.5-2.4,1.1-3.3s2.8-1.4,2.8-1.7c0-0.2-2.4,0-3.3,1c0.3-1.2,0.2-2.5-0.4-3.5c-1.5-2.8-4.7-2-5.7,0.7c0,0.1,0.1,0.1,0.1,0.1
		C6.7,20.5,8,19.6,9.4,20c0.8,0.3,1.3,1,1.6,1.8c-0.2-0.3-0.5-0.5-0.9-0.6c-0.2,0-0.5,0-0.8,0.1c0.3,0.2,0.4,0.7,0.3,1.1
		c-0.1,0.6-0.6,1-1.1,0.9C8.4,23.2,8.1,23,8,22.7c-0.1,0.3-0.2,0.6-0.3,1c-0.3,1.6,0.3,3,1.4,3.3l0,0c0.1,0,0.2,0,0.3,0
		C8.2,27.7,6.7,27.3,5.9,26.1z"/>
	<path class="st0" d="M26.5,22.5c-0.8-1.8-3.2-2.5-4.7-1.3c-0.7,0.5-1.3,1.3-1.4,2.2c1-1,2.3-2.3,3.8-1.8c0.8,0.4,1.4,1,1.7,1.8
		c-0.2-0.2-0.5-0.4-0.8-0.5c-0.3-0.1-0.5,0-0.8,0.1c0.3,0.3,0.4,0.7,0.3,1.2c-0.1,0.7-0.7,1.1-1.2,1c-0.3-0.1-0.5-0.3-0.7-0.6
		c-0.1,0.3-0.3,0.7-0.3,1c-0.3,1.5,0.2,2.9,1.1,3.4c-0.5,0.1-0.9,0.2-1.3,0.4c-0.5-0.2-1.1-0.5-1.7-1.2c0,0-0.1,0-0.1,0
		c0.2,0.6,0.6,1.1,1.1,1.5c0,0,0.1,0,0.1-0.1c-0.3,0.2-0.6,0.5-0.8,0.8c-0.1,0.1,0.1,0.2,0.1,0.1c1.8-1.2,3.8-1.2,5.8-0.9h0
		c-0.4-0.3-0.8-0.5-1.2-0.6C27.1,27.4,27.5,24.6,26.5,22.5z"/>
	<path class="st0" d="M41.3,23.9C43.8,14.8,37.7,4,25.7,3.1C21-0.3,13,0.5,9.5,2.4c0,0,0.6,0.2,1,1c-1.1,0-4.6,0.8-6,2.6
		c0,0,0.7,0.5,1.3,1C4.5,7.3,2.6,8.1,1.4,9.8c0,0,0.5-0.2,1.2-0.3c-0.9,0.5-1.6,1.2-1.9,2c0,0,1.1,2.1,2.5,2.2c-0.7,0.3-2-0.2-2-0.2
		s0.3,3,2.5,6c-0.4,2.4-0.6,4.9-0.3,7.3c-4.4,14,12.5,19.7,24,15c0.1,0,0-0.2,0-0.1c-2.9,0.4-5.7,0.9-8.6,0.9
		C13.3,42.5,7,40.3,4.6,35.1c-1.1-2.5-1.1-5.6-0.2-8.2c-0.1-2-0.1-4.1,0.2-6.1c0.2-1.5,0.5-3.1,1.1-4.6c1.2-1.9,4.2-4.4,11.3-4.4
		c9.6,0,15.5,5.6,15.5,5.6s0.2,3.2,0.3,4c0.1,0.8,1.3,2.7,1.3,2.7c-0.9,1.7-1.1,3.3-1,3.8c0.1,0.5,1,1.5,1.5,1.7
		c0.2-0.6,0.4-1.2,0.6-1.7c1.3-1.6,2.8-3.3,4.9-3.1c4.1,0.5,3,5.3,1.2,7.7c-1.1,1.7-3.5,3.5-5.2,1.8c-0.5-0.5-0.9-1.3-1-2.1
		c0-0.4-0.1-0.7-0.2-1.1c0-0.1-0.1,0-0.1,0c0,0.1,0,0.3,0,0.4c0,0,0,0.1,0,0.1c-0.1,0.8-0.3,1.6-0.5,2.3c-0.8,2.3-2.3,4.2-4,5.9
		c-0.3,0.4-0.8,0.7-1.1,1.1c2.9-1,5.3-3.9,5.8-7c0.6,1.7,2.5,2.5,4.3,1.7c2.4-1.1,3.8-3.5,4.5-5.9h0C44.8,26.4,43.3,24.5,41.3,23.9z
		"/>
	<path class="st0" d="M13.5,32.6c1.3,0,2.6-0.6,2.7-1c0-0.4-3.7,0-5.3-0.9C10.9,30.6,11.6,32.5,13.5,32.6z"/>
	<path class="st0" d="M9.5,18c2.2,0.3,3.4,2.1,3.4,2.1s1.4-2,0.3-3.7c0,0-0.2,0.6-0.4,0.8c-0.7-0.6-1.9-1.4-3.7-1.2
		c-1.3,0.1-2.9,1.5-3.2,3.6l0,0C5.9,19.6,7.3,17.6,9.5,18z"/>
	<path class="st0" d="M41.2,29.1c0.7-1.4,0-3-1.7-2.6c-1.3,0.4-2.1,1.5-2.7,2.6c0,0-0.5,1-0.4,1.4c0.1,0.4,1-0.3,1.9,0.5
		c0.9,0.8-0.8,2-0.8,2c-0.1,0-0.1,0.1,0,0.1s2.1-0.9,1.5-2.2c-0.1-0.2-0.2-0.4-0.4-0.5c1-1.3,0.5-2.3,0.2-2.7
		C39.9,26.5,41.5,26.8,41.2,29.1C41.1,29.1,41.2,29.1,41.2,29.1z"/>
	<path class="st0" d="M26.4,18c-1.8-1.1-4.7-1-5.9-0.6c-0.3-0.5-0.2-1-0.2-1c-2,1.8-1,4.2-1,4.2s2.6-1.5,5.5-0.6
		c2.9,0.8,3.6,3.9,3.7,4.1C29.3,21.2,27.9,18.9,26.4,18z"/>
</g>
</svg>
