<?xml version="1.0" encoding="utf-8"?>
<!-- Generator: Adobe Illustrator 26.5.3, SVG Export Plug-In . SVG Version: 6.00 Build 0)  -->
<svg version="1.1" id="a" xmlns="http://www.w3.org/2000/svg" xmlns:xlink="http://www.w3.org/1999/xlink" x="0px" y="0px"
	 viewBox="0 0 14.4 13.9" style="enable-background:new 0 0 14.4 13.9;" xml:space="preserve">
<style type="text/css">
	.st0{fill:#151718;}
</style>
<path class="st0" d="M7.2,0.1c-3.8,0-6.8,3.1-6.8,6.8s3,6.8,6.8,6.8S14,10.7,14,7S11,0.1,7.2,0.1z M4.7,11.4H2.9V5.5h1.8V11.4z
	 M3.8,4.6c-0.6,0-1-0.5-1-1c0-0.6,0.5-1.1,1-1c0.6,0,1,0.5,1,1S4.4,4.6,3.8,4.6z M11.6,11.3L11.6,11.3
	C11.6,11.4,11.6,11.4,11.6,11.3c-0.6,0.1-1.2,0.1-1.7,0.1c-0.1,0-0.1,0-0.1-0.1c0-0.5,0-1,0-1.6c0-0.5,0-1.1,0-1.6
	c0-0.2,0-0.4-0.1-0.6C9.5,7.3,9.3,7.1,9,7C8.7,7,8.4,7,8.2,7.1C7.9,7.3,7.7,7.5,7.6,7.9c0,0.1-0.1,0.3-0.1,0.4c0,1,0,2,0,3v0.1H5.8
	V5.5h1.7v0.8c0,0,0,0,0,0c0.5-0.6,1.1-0.9,1.8-0.9c0.4,0,0.8,0,1.1,0.2c0.6,0.3,0.9,0.7,1.1,1.3c0.1,0.2,0.1,0.5,0.1,0.8
	C11.6,8.8,11.6,10.1,11.6,11.3L11.6,11.3z"/>
</svg>
